<?xml version="1.0" encoding="UTF-8" standalone="no"?>
<svg viewBox="0 0 2084 2084" version="1.1" xmlns="http://www.w3.org/2000/svg" xml:space="preserve" style="fill-rule:evenodd;clip-rule:evenodd;stroke-linejoin:round;stroke-miterlimit:2;">
    <style>
        /* Default color for Light Mode */
        path { 
            fill: #000000; 
        }

        /* Color for Dark Mode */
        @media (prefers-color-scheme: dark) {
            path { 
                fill: #ffffff; 
            }
        }
    </style>
    <g id="logo1">
        <path d="M507.938,1938.12c12.39,-3.546 25.526,-6.613 39.245,-9.259c123.562,-23.833 291.257,-11.873 417.093,32.44c145.192,51.13 266.159,77.335 368.353,86.991c-90.93,25.96 -186.925,39.861 -286.141,39.861c-197.032,-0 -381.36,-54.823 -538.55,-150.033Zm1569.2,-739.714c-171.403,104.731 -387.45,142.89 -757.819,54.492c43.272,-57.494 68.932,-128.98 68.932,-206.412c-0,-189.707 -154.019,-343.726 -343.726,-343.726c-189.708,0 -343.726,154.019 -343.726,343.726c-0,13.004 0.724,25.84 2.133,38.47c-209.02,-29.051 -430.493,-18.857 -584.075,32.815c-40.412,13.596 -76.337,30.29 -107.071,49.673c-4.598,-39.686 -6.962,-80.048 -6.962,-120.958c0,-574.911 466.756,-1041.67 1041.67,-1041.67c574.912,0 1041.67,466.756 1041.67,1041.67c-0,51.598 -3.76,102.324 -11.02,151.92Zm-408.603,683.466c-128.98,51.984 -318.887,84.254 -663.251,-37.014c-170.549,-60.059 -407.341,-67.599 -551.629,-19.055c-23.81,8.01 -45.29,17.686 -64.213,28.776c-77.234,-62.891 -145.294,-136.625 -201.853,-218.871c7.46,-5.727 15.81,-11.086 24.82,-16.197c37.005,-20.993 84.796,-36.128 138.857,-46.555c174.79,-33.714 412.012,-16.839 590.018,45.846c412.248,145.173 689.135,161.693 891.233,110.946c-49.035,56.351 -104.023,107.387 -163.982,152.124Zm292.109,-335.897c-191.69,111.001 -471.679,134.809 -978.354,-43.616c-231.415,-81.493 -552.697,-92.15 -748.479,-26.281c-42.6,14.332 -79.571,32.589 -109.953,54.1c-37.323,-70.988 -66.692,-146.799 -86.92,-226.244c12.893,-14.349 30.105,-26.836 50.12,-38.19c43.117,-24.46 98.773,-42.177 161.763,-54.326c201.576,-38.88 475.154,-19.437 680.44,52.855c564.897,198.929 881.218,193.173 1111.95,92.083c-20.654,66.283 -47.756,129.735 -80.571,189.619Z"/>
    </g>
</svg>